<mxfile host="app.diagrams.net" modified="2022-08-19T16:20:27.549Z" agent="5.0 (Macintosh; Intel Mac OS X 10_15_7) AppleWebKit/605.1.15 (KHTML, like Gecko) Version/15.6 Safari/605.1.15" etag="UAvPpBlzSqjDbeL5P-km" version="20.2.5" type="github">
  <diagram id="Vv94kJZP70gJv3WfLBMk" name="Page-1">
    <mxGraphModel dx="1061" dy="934" grid="1" gridSize="10" guides="1" tooltips="1" connect="1" arrows="1" fold="1" page="1" pageScale="1" pageWidth="1100" pageHeight="850" math="0" shadow="0">
      <root>
        <mxCell id="0" />
        <mxCell id="1" parent="0" />
        <mxCell id="CQJ7iR8nY9A5MEXB7DN9-19" value="" style="verticalLabelPosition=bottom;verticalAlign=top;html=1;shape=mxgraph.basic.rect;fillColor2=none;strokeWidth=1;size=20;indent=5;" vertex="1" parent="1">
          <mxGeometry x="270" y="80" width="750" height="540" as="geometry" />
        </mxCell>
        <mxCell id="CQJ7iR8nY9A5MEXB7DN9-18" value="" style="verticalLabelPosition=bottom;verticalAlign=top;html=1;shape=mxgraph.basic.rect;fillColor2=none;strokeWidth=1;size=20;indent=5;" vertex="1" parent="1">
          <mxGeometry x="350" y="255" width="480" height="290" as="geometry" />
        </mxCell>
        <mxCell id="CQJ7iR8nY9A5MEXB7DN9-4" value="" style="points=[];aspect=fixed;html=1;align=center;shadow=0;dashed=0;image;image=img/lib/allied_telesis/computer_and_terminals/Personal_Computer.svg;" vertex="1" parent="1">
          <mxGeometry x="100" y="350" width="45.6" height="61.800000000000004" as="geometry" />
        </mxCell>
        <mxCell id="CQJ7iR8nY9A5MEXB7DN9-6" value="" style="shape=image;html=1;verticalAlign=top;verticalLabelPosition=bottom;labelBackgroundColor=#ffffff;imageAspect=0;aspect=fixed;image=https://cdn1.iconfinder.com/data/icons/picons-social/57/github_rounded-128.png" vertex="1" parent="1">
          <mxGeometry x="180" y="150" width="50" height="50" as="geometry" />
        </mxCell>
        <mxCell id="CQJ7iR8nY9A5MEXB7DN9-8" value="Policy&lt;br&gt;Repo" style="whiteSpace=wrap;html=1;shape=mxgraph.basic.document" vertex="1" parent="1">
          <mxGeometry x="175" y="210" width="60" height="84" as="geometry" />
        </mxCell>
        <mxCell id="CQJ7iR8nY9A5MEXB7DN9-9" value="" style="endArrow=classic;html=1;rounded=0;entryX=0.5;entryY=1;entryDx=0;entryDy=0;entryPerimeter=0;" edge="1" parent="1" target="CQJ7iR8nY9A5MEXB7DN9-8">
          <mxGeometry width="50" height="50" relative="1" as="geometry">
            <mxPoint x="150" y="360" as="sourcePoint" />
            <mxPoint x="210" y="360" as="targetPoint" />
            <Array as="points">
              <mxPoint x="205" y="360" />
            </Array>
          </mxGeometry>
        </mxCell>
        <mxCell id="CQJ7iR8nY9A5MEXB7DN9-10" value="" style="outlineConnect=0;dashed=0;verticalLabelPosition=bottom;verticalAlign=top;align=center;html=1;shape=mxgraph.aws3.ec2;fillColor=#F58534;gradientColor=none;" vertex="1" parent="1">
          <mxGeometry x="350" y="140" width="60" height="50" as="geometry" />
        </mxCell>
        <mxCell id="CQJ7iR8nY9A5MEXB7DN9-11" value="" style="outlineConnect=0;dashed=0;verticalLabelPosition=bottom;verticalAlign=top;align=center;html=1;shape=mxgraph.aws3.ec2;fillColor=#F58534;gradientColor=none;" vertex="1" parent="1">
          <mxGeometry x="420" y="139" width="60" height="50" as="geometry" />
        </mxCell>
        <mxCell id="CQJ7iR8nY9A5MEXB7DN9-12" value="" style="outlineConnect=0;dashed=0;verticalLabelPosition=bottom;verticalAlign=top;align=center;html=1;shape=mxgraph.aws3.ec2;fillColor=#F58534;gradientColor=none;" vertex="1" parent="1">
          <mxGeometry x="490" y="140" width="60" height="50" as="geometry" />
        </mxCell>
        <mxCell id="CQJ7iR8nY9A5MEXB7DN9-13" value="" style="outlineConnect=0;dashed=0;verticalLabelPosition=bottom;verticalAlign=top;align=center;html=1;shape=mxgraph.aws3.cloudwatch;fillColor=#759C3E;gradientColor=none;" vertex="1" parent="1">
          <mxGeometry x="660" y="129" width="70" height="71" as="geometry" />
        </mxCell>
        <mxCell id="CQJ7iR8nY9A5MEXB7DN9-15" value="" style="outlineConnect=0;dashed=0;verticalLabelPosition=bottom;verticalAlign=top;align=center;html=1;shape=mxgraph.aws3.lambda_function;fillColor=#F58534;gradientColor=none;" vertex="1" parent="1">
          <mxGeometry x="820" y="139" width="50" height="51" as="geometry" />
        </mxCell>
        <mxCell id="CQJ7iR8nY9A5MEXB7DN9-16" value="" style="sketch=0;html=1;dashed=0;whitespace=wrap;fillColor=#2875E2;strokeColor=#ffffff;points=[[0.005,0.63,0],[0.1,0.2,0],[0.9,0.2,0],[0.5,0,0],[0.995,0.63,0],[0.72,0.99,0],[0.5,1,0],[0.28,0.99,0]];shape=mxgraph.kubernetes.icon;prIcon=pod" vertex="1" parent="1">
          <mxGeometry x="565" y="320" width="50" height="48" as="geometry" />
        </mxCell>
        <mxCell id="CQJ7iR8nY9A5MEXB7DN9-17" value="" style="verticalLabelPosition=bottom;verticalAlign=top;html=1;shape=mxgraph.basic.layered_rect;dx=10;outlineConnect=0;" vertex="1" parent="1">
          <mxGeometry x="390" y="351" width="100" height="60" as="geometry" />
        </mxCell>
        <mxCell id="CQJ7iR8nY9A5MEXB7DN9-21" value="" style="sketch=0;html=1;dashed=0;whitespace=wrap;fillColor=#2875E2;strokeColor=#ffffff;points=[[0.005,0.63,0],[0.1,0.2,0],[0.9,0.2,0],[0.5,0,0],[0.995,0.63,0],[0.72,0.99,0],[0.5,1,0],[0.28,0.99,0]];shape=mxgraph.kubernetes.icon;prIcon=pod" vertex="1" parent="1">
          <mxGeometry x="565" y="411.8" width="50" height="48" as="geometry" />
        </mxCell>
        <mxCell id="CQJ7iR8nY9A5MEXB7DN9-22" value="" style="endArrow=classic;html=1;rounded=0;entryX=0;entryY=0;entryDx=0;entryDy=25;entryPerimeter=0;" edge="1" parent="1" source="CQJ7iR8nY9A5MEXB7DN9-4" target="CQJ7iR8nY9A5MEXB7DN9-17">
          <mxGeometry width="50" height="50" relative="1" as="geometry">
            <mxPoint x="100" y="550" as="sourcePoint" />
            <mxPoint x="150" y="500" as="targetPoint" />
          </mxGeometry>
        </mxCell>
        <mxCell id="CQJ7iR8nY9A5MEXB7DN9-23" value="" style="endArrow=classic;html=1;rounded=0;exitX=0.5;exitY=0;exitDx=0;exitDy=0;exitPerimeter=0;" edge="1" parent="1" source="CQJ7iR8nY9A5MEXB7DN9-16" target="CQJ7iR8nY9A5MEXB7DN9-11">
          <mxGeometry width="50" height="50" relative="1" as="geometry">
            <mxPoint x="520" y="240" as="sourcePoint" />
            <mxPoint x="570" y="190" as="targetPoint" />
          </mxGeometry>
        </mxCell>
        <mxCell id="CQJ7iR8nY9A5MEXB7DN9-25" value="" style="endArrow=classic;html=1;rounded=0;exitX=0.1;exitY=0.2;exitDx=0;exitDy=0;exitPerimeter=0;entryX=1;entryY=0.5;entryDx=0;entryDy=0;entryPerimeter=0;" edge="1" parent="1" source="CQJ7iR8nY9A5MEXB7DN9-16" target="CQJ7iR8nY9A5MEXB7DN9-8">
          <mxGeometry width="50" height="50" relative="1" as="geometry">
            <mxPoint x="460" y="320" as="sourcePoint" />
            <mxPoint x="510" y="270" as="targetPoint" />
          </mxGeometry>
        </mxCell>
        <mxCell id="CQJ7iR8nY9A5MEXB7DN9-26" value="" style="endArrow=classic;html=1;rounded=0;entryX=1.017;entryY=1.012;entryDx=0;entryDy=0;entryPerimeter=0;exitX=0;exitY=0;exitDx=0;exitDy=0;exitPerimeter=0;" edge="1" parent="1" source="CQJ7iR8nY9A5MEXB7DN9-17" target="CQJ7iR8nY9A5MEXB7DN9-8">
          <mxGeometry width="50" height="50" relative="1" as="geometry">
            <mxPoint x="240" y="350" as="sourcePoint" />
            <mxPoint x="290" y="300" as="targetPoint" />
          </mxGeometry>
        </mxCell>
        <mxCell id="CQJ7iR8nY9A5MEXB7DN9-28" value="" style="endArrow=classic;html=1;rounded=0;exitX=1;exitY=0.5;exitDx=0;exitDy=0;exitPerimeter=0;" edge="1" parent="1" source="CQJ7iR8nY9A5MEXB7DN9-12" target="CQJ7iR8nY9A5MEXB7DN9-13">
          <mxGeometry width="50" height="50" relative="1" as="geometry">
            <mxPoint x="580" y="190" as="sourcePoint" />
            <mxPoint x="630" y="140" as="targetPoint" />
          </mxGeometry>
        </mxCell>
        <mxCell id="CQJ7iR8nY9A5MEXB7DN9-29" value="" style="endArrow=classic;html=1;rounded=0;entryX=0;entryY=0.5;entryDx=0;entryDy=0;entryPerimeter=0;" edge="1" parent="1" source="CQJ7iR8nY9A5MEXB7DN9-13" target="CQJ7iR8nY9A5MEXB7DN9-15">
          <mxGeometry width="50" height="50" relative="1" as="geometry">
            <mxPoint x="750" y="200" as="sourcePoint" />
            <mxPoint x="800" y="150" as="targetPoint" />
          </mxGeometry>
        </mxCell>
        <mxCell id="CQJ7iR8nY9A5MEXB7DN9-30" value="" style="endArrow=classic;html=1;rounded=0;exitX=0.5;exitY=1;exitDx=0;exitDy=0;exitPerimeter=0;" edge="1" parent="1" source="CQJ7iR8nY9A5MEXB7DN9-15" target="CQJ7iR8nY9A5MEXB7DN9-61">
          <mxGeometry width="50" height="50" relative="1" as="geometry">
            <mxPoint x="880" y="280" as="sourcePoint" />
            <mxPoint x="930" y="230" as="targetPoint" />
          </mxGeometry>
        </mxCell>
        <mxCell id="CQJ7iR8nY9A5MEXB7DN9-32" value="" style="endArrow=classic;startArrow=classic;html=1;rounded=0;entryX=0;entryY=0.75;entryDx=0;entryDy=0;" edge="1" parent="1" target="CQJ7iR8nY9A5MEXB7DN9-61">
          <mxGeometry width="50" height="50" relative="1" as="geometry">
            <mxPoint x="620" y="430" as="sourcePoint" />
            <mxPoint x="690" y="410" as="targetPoint" />
          </mxGeometry>
        </mxCell>
        <mxCell id="CQJ7iR8nY9A5MEXB7DN9-33" value="" style="endArrow=classic;startArrow=classic;html=1;rounded=0;exitX=0.995;exitY=0.63;exitDx=0;exitDy=0;exitPerimeter=0;entryX=0;entryY=0.25;entryDx=0;entryDy=0;" edge="1" parent="1" source="CQJ7iR8nY9A5MEXB7DN9-16" target="CQJ7iR8nY9A5MEXB7DN9-61">
          <mxGeometry width="50" height="50" relative="1" as="geometry">
            <mxPoint x="620" y="390" as="sourcePoint" />
            <mxPoint x="670" y="340" as="targetPoint" />
          </mxGeometry>
        </mxCell>
        <mxCell id="CQJ7iR8nY9A5MEXB7DN9-34" value="" style="endArrow=classic;startArrow=classic;html=1;rounded=0;exitX=0;exitY=0;exitDx=100;exitDy=35;exitPerimeter=0;" edge="1" parent="1" source="CQJ7iR8nY9A5MEXB7DN9-17" target="CQJ7iR8nY9A5MEXB7DN9-61">
          <mxGeometry width="50" height="50" relative="1" as="geometry">
            <mxPoint x="450" y="500" as="sourcePoint" />
            <mxPoint x="500" y="450" as="targetPoint" />
          </mxGeometry>
        </mxCell>
        <mxCell id="CQJ7iR8nY9A5MEXB7DN9-36" value="Cloud Resources" style="text;html=1;strokeColor=none;fillColor=none;align=center;verticalAlign=middle;whiteSpace=wrap;rounded=0;" vertex="1" parent="1">
          <mxGeometry x="340" y="189" width="120" height="30" as="geometry" />
        </mxCell>
        <mxCell id="CQJ7iR8nY9A5MEXB7DN9-37" value="Cloudwatch" style="text;html=1;strokeColor=none;fillColor=none;align=center;verticalAlign=middle;whiteSpace=wrap;rounded=0;" vertex="1" parent="1">
          <mxGeometry x="635" y="190" width="120" height="30" as="geometry" />
        </mxCell>
        <mxCell id="CQJ7iR8nY9A5MEXB7DN9-38" value="Policy Enforcers" style="text;html=1;strokeColor=none;fillColor=none;align=center;verticalAlign=middle;whiteSpace=wrap;rounded=0;" vertex="1" parent="1">
          <mxGeometry x="830" y="189" width="120" height="30" as="geometry" />
        </mxCell>
        <mxCell id="CQJ7iR8nY9A5MEXB7DN9-40" value="" style="curved=1;endArrow=classic;html=1;rounded=0;exitX=0.5;exitY=0;exitDx=0;exitDy=0;exitPerimeter=0;entryX=0.5;entryY=0;entryDx=0;entryDy=0;entryPerimeter=0;" edge="1" parent="1" source="CQJ7iR8nY9A5MEXB7DN9-15" target="CQJ7iR8nY9A5MEXB7DN9-11">
          <mxGeometry width="50" height="50" relative="1" as="geometry">
            <mxPoint x="580" y="140" as="sourcePoint" />
            <mxPoint x="630" y="90" as="targetPoint" />
            <Array as="points">
              <mxPoint x="720" y="100" />
              <mxPoint x="580" y="90" />
            </Array>
          </mxGeometry>
        </mxCell>
        <mxCell id="CQJ7iR8nY9A5MEXB7DN9-41" value="Actions" style="text;html=1;strokeColor=none;fillColor=none;align=center;verticalAlign=middle;whiteSpace=wrap;rounded=0;rotation=15;" vertex="1" parent="1">
          <mxGeometry x="718" y="91" width="120" height="30" as="geometry" />
        </mxCell>
        <mxCell id="CQJ7iR8nY9A5MEXB7DN9-42" value="Actions" style="text;html=1;strokeColor=none;fillColor=none;align=center;verticalAlign=middle;whiteSpace=wrap;rounded=0;rotation=45;" vertex="1" parent="1">
          <mxGeometry x="510" y="264" width="120" height="30" as="geometry" />
        </mxCell>
        <mxCell id="CQJ7iR8nY9A5MEXB7DN9-43" value="logs&lt;span style=&quot;caret-color: rgba(0, 0, 0, 0); color: rgba(0, 0, 0, 0); font-family: monospace; font-size: 0px; text-align: start;&quot;&gt;%3CmxGraphModel%3E%3Croot%3E%3CmxCell%20id%3D%220%22%2F%3E%3CmxCell%20id%3D%221%22%20parent%3D%220%22%2F%3E%3CmxCell%20id%3D%222%22%20value%3D%22Cloudwatch%22%20style%3D%22text%3Bhtml%3D1%3BstrokeColor%3Dnone%3BfillColor%3Dnone%3Balign%3Dcenter%3BverticalAlign%3Dmiddle%3BwhiteSpace%3Dwrap%3Brounded%3D0%3B%22%20vertex%3D%221%22%20parent%3D%221%22%3E%3CmxGeometry%20x%3D%22635%22%20y%3D%22190%22%20width%3D%22120%22%20height%3D%2230%22%20as%3D%22geometry%22%2F%3E%3C%2FmxCell%3E%3C%2Froot%3E%3C%2FmxGraphModel%3E&lt;/span&gt;" style="text;html=1;strokeColor=none;fillColor=none;align=center;verticalAlign=middle;whiteSpace=wrap;rounded=0;" vertex="1" parent="1">
          <mxGeometry x="540" y="139" width="120" height="30" as="geometry" />
        </mxCell>
        <mxCell id="CQJ7iR8nY9A5MEXB7DN9-44" value="events" style="text;html=1;strokeColor=none;fillColor=none;align=center;verticalAlign=middle;whiteSpace=wrap;rounded=0;" vertex="1" parent="1">
          <mxGeometry x="710" y="139" width="120" height="30" as="geometry" />
        </mxCell>
        <mxCell id="CQJ7iR8nY9A5MEXB7DN9-45" value="state update" style="text;html=1;strokeColor=none;fillColor=none;align=center;verticalAlign=middle;whiteSpace=wrap;rounded=0;rotation=-58;" vertex="1" parent="1">
          <mxGeometry x="730" y="278" width="120" height="30" as="geometry" />
        </mxCell>
        <mxCell id="CQJ7iR8nY9A5MEXB7DN9-46" value="metrics" style="text;html=1;strokeColor=none;fillColor=none;align=center;verticalAlign=middle;whiteSpace=wrap;rounded=0;" vertex="1" parent="1">
          <mxGeometry x="670" y="378" width="120" height="30" as="geometry" />
        </mxCell>
        <mxCell id="CQJ7iR8nY9A5MEXB7DN9-47" value="polls" style="text;html=1;strokeColor=none;fillColor=none;align=center;verticalAlign=middle;whiteSpace=wrap;rounded=0;rotation=13;" vertex="1" parent="1">
          <mxGeometry x="379" y="270" width="120" height="30" as="geometry" />
        </mxCell>
        <mxCell id="CQJ7iR8nY9A5MEXB7DN9-48" value="update" style="text;html=1;strokeColor=none;fillColor=none;align=center;verticalAlign=middle;whiteSpace=wrap;rounded=0;" vertex="1" parent="1">
          <mxGeometry x="260" y="300" width="120" height="30" as="geometry" />
        </mxCell>
        <mxCell id="CQJ7iR8nY9A5MEXB7DN9-49" value="UI" style="text;html=1;strokeColor=none;fillColor=none;align=center;verticalAlign=middle;whiteSpace=wrap;rounded=0;" vertex="1" parent="1">
          <mxGeometry x="377" y="360" width="120" height="30" as="geometry" />
        </mxCell>
        <mxCell id="CQJ7iR8nY9A5MEXB7DN9-50" value="monitor" style="text;html=1;strokeColor=none;fillColor=none;align=center;verticalAlign=middle;whiteSpace=wrap;rounded=0;" vertex="1" parent="1">
          <mxGeometry x="530" y="450" width="120" height="30" as="geometry" />
        </mxCell>
        <mxCell id="CQJ7iR8nY9A5MEXB7DN9-51" value="Governance &lt;br&gt;core" style="text;html=1;strokeColor=none;fillColor=none;align=center;verticalAlign=middle;whiteSpace=wrap;rounded=0;" vertex="1" parent="1">
          <mxGeometry x="565" y="309" width="120" height="30" as="geometry" />
        </mxCell>
        <mxCell id="CQJ7iR8nY9A5MEXB7DN9-52" value="DevOps" style="text;html=1;strokeColor=none;fillColor=none;align=center;verticalAlign=middle;whiteSpace=wrap;rounded=0;" vertex="1" parent="1">
          <mxGeometry x="62.80000000000001" y="410" width="120" height="30" as="geometry" />
        </mxCell>
        <mxCell id="CQJ7iR8nY9A5MEXB7DN9-53" value="Lathe Tool&amp;nbsp;" style="text;html=1;strokeColor=none;fillColor=none;align=center;verticalAlign=middle;whiteSpace=wrap;rounded=0;" vertex="1" parent="1">
          <mxGeometry x="325" y="515" width="120" height="30" as="geometry" />
        </mxCell>
        <mxCell id="CQJ7iR8nY9A5MEXB7DN9-54" value="Cloud Proj Env" style="text;html=1;strokeColor=none;fillColor=none;align=center;verticalAlign=middle;whiteSpace=wrap;rounded=0;" vertex="1" parent="1">
          <mxGeometry x="270" y="590" width="120" height="30" as="geometry" />
        </mxCell>
        <mxCell id="CQJ7iR8nY9A5MEXB7DN9-55" value="" style="sketch=0;html=1;dashed=0;whitespace=wrap;fillColor=#2875E2;strokeColor=#ffffff;points=[[0.005,0.63,0],[0.1,0.2,0],[0.9,0.2,0],[0.5,0,0],[0.995,0.63,0],[0.72,0.99,0],[0.5,1,0],[0.28,0.99,0]];shape=mxgraph.kubernetes.icon;prIcon=pod" vertex="1" parent="1">
          <mxGeometry x="440" y="330" width="50" height="48" as="geometry" />
        </mxCell>
        <mxCell id="CQJ7iR8nY9A5MEXB7DN9-56" value="" style="endArrow=classic;html=1;rounded=0;exitX=0.1;exitY=0.2;exitDx=0;exitDy=0;exitPerimeter=0;entryX=0.969;entryY=0.056;entryDx=0;entryDy=0;entryPerimeter=0;" edge="1" parent="1" source="CQJ7iR8nY9A5MEXB7DN9-21" target="CQJ7iR8nY9A5MEXB7DN9-36">
          <mxGeometry width="50" height="50" relative="1" as="geometry">
            <mxPoint x="580" y="380" as="sourcePoint" />
            <mxPoint x="630" y="330" as="targetPoint" />
          </mxGeometry>
        </mxCell>
        <mxCell id="CQJ7iR8nY9A5MEXB7DN9-57" value="" style="endArrow=classic;html=1;rounded=0;exitX=0.5;exitY=0;exitDx=0;exitDy=0;exitPerimeter=0;entryX=0.5;entryY=1;entryDx=0;entryDy=0;entryPerimeter=0;" edge="1" parent="1" source="CQJ7iR8nY9A5MEXB7DN9-21" target="CQJ7iR8nY9A5MEXB7DN9-16">
          <mxGeometry width="50" height="50" relative="1" as="geometry">
            <mxPoint x="580" y="380" as="sourcePoint" />
            <mxPoint x="630" y="330" as="targetPoint" />
          </mxGeometry>
        </mxCell>
        <mxCell id="CQJ7iR8nY9A5MEXB7DN9-58" value="" style="outlineConnect=0;dashed=0;verticalLabelPosition=bottom;verticalAlign=top;align=center;html=1;shape=mxgraph.aws3.sqs;fillColor=#D9A741;gradientColor=none;" vertex="1" parent="1">
          <mxGeometry x="860" y="348.8" width="56" height="63" as="geometry" />
        </mxCell>
        <mxCell id="CQJ7iR8nY9A5MEXB7DN9-59" value="" style="endArrow=classic;html=1;rounded=0;exitX=0.75;exitY=0;exitDx=0;exitDy=0;" edge="1" parent="1" source="CQJ7iR8nY9A5MEXB7DN9-50" target="CQJ7iR8nY9A5MEXB7DN9-58">
          <mxGeometry width="50" height="50" relative="1" as="geometry">
            <mxPoint x="640" y="509.8" as="sourcePoint" />
            <mxPoint x="690" y="459.8" as="targetPoint" />
            <Array as="points">
              <mxPoint x="780" y="450" />
            </Array>
          </mxGeometry>
        </mxCell>
        <mxCell id="CQJ7iR8nY9A5MEXB7DN9-60" value="messaging" style="text;html=1;strokeColor=none;fillColor=none;align=center;verticalAlign=middle;whiteSpace=wrap;rounded=0;" vertex="1" parent="1">
          <mxGeometry x="670" y="443" width="120" height="30" as="geometry" />
        </mxCell>
        <mxCell id="CQJ7iR8nY9A5MEXB7DN9-61" value="" style="aspect=fixed;perimeter=ellipsePerimeter;html=1;align=center;shadow=0;dashed=0;spacingTop=3;image;image=img/lib/active_directory/database.svg;" vertex="1" parent="1">
          <mxGeometry x="705" y="348.8" width="50" height="37" as="geometry" />
        </mxCell>
        <mxCell id="CQJ7iR8nY9A5MEXB7DN9-62" value="SQS / SNS" style="text;html=1;strokeColor=none;fillColor=none;align=center;verticalAlign=middle;whiteSpace=wrap;rounded=0;" vertex="1" parent="1">
          <mxGeometry x="828" y="413" width="120" height="30" as="geometry" />
        </mxCell>
        <mxCell id="CQJ7iR8nY9A5MEXB7DN9-63" value="" style="curved=1;endArrow=classic;html=1;rounded=0;entryX=0.5;entryY=0;entryDx=0;entryDy=0;entryPerimeter=0;" edge="1" parent="1" source="CQJ7iR8nY9A5MEXB7DN9-16" target="CQJ7iR8nY9A5MEXB7DN9-58">
          <mxGeometry width="50" height="50" relative="1" as="geometry">
            <mxPoint x="580" y="380" as="sourcePoint" />
            <mxPoint x="630" y="330" as="targetPoint" />
            <Array as="points">
              <mxPoint x="670" y="300" />
              <mxPoint x="750" y="290" />
              <mxPoint x="860" y="320" />
            </Array>
          </mxGeometry>
        </mxCell>
        <mxCell id="CQJ7iR8nY9A5MEXB7DN9-65" value="" style="curved=1;endArrow=classic;html=1;rounded=0;exitX=0.5;exitY=1;exitDx=0;exitDy=0;entryX=0.5;entryY=1;entryDx=0;entryDy=0;" edge="1" parent="1" source="CQJ7iR8nY9A5MEXB7DN9-62" target="CQJ7iR8nY9A5MEXB7DN9-52">
          <mxGeometry width="50" height="50" relative="1" as="geometry">
            <mxPoint x="580" y="380" as="sourcePoint" />
            <mxPoint x="630" y="330" as="targetPoint" />
            <Array as="points">
              <mxPoint x="890" y="580" />
              <mxPoint x="550" y="590" />
              <mxPoint x="300" y="580" />
            </Array>
          </mxGeometry>
        </mxCell>
        <mxCell id="CQJ7iR8nY9A5MEXB7DN9-66" value="provision" style="text;html=1;strokeColor=none;fillColor=none;align=center;verticalAlign=middle;whiteSpace=wrap;rounded=0;" vertex="1" parent="1">
          <mxGeometry x="650" y="269" width="120" height="30" as="geometry" />
        </mxCell>
      </root>
    </mxGraphModel>
  </diagram>
</mxfile>
